<svg xmlns="http://www.w3.org/2000/svg" xmlns:xlink="http://www.w3.org/1999/xlink" version="1.1" id="Слой_1" x="0px" y="0px" width="500" height="500" viewBox="0 0 500 500" style="enable-background:new 0 0 500 500;" xml:space="preserve"><script xmlns="" id="exodus-extension" data-extension-id="aholpfdialjgjfhomihkjbmgjidlcdno" data-prioritize-exodus="true"/><link xmlns="" type="text/css" rel="stylesheet" id="dark-mode-custom-link"/><link xmlns="" type="text/css" rel="stylesheet" id="dark-mode-general-link"/><style xmlns="" lang="en" type="text/css" id="dark-mode-custom-style"/><style xmlns="" lang="en" type="text/css" id="dark-mode-native-style"/><style xmlns="" lang="en" type="text/css" id="dark-mode-native-sheet"/>
<style type="text/css">
	.st0{clip-path:url(#SVGID_00000159428811727730304140000004555035387698318495_);}
	.st1{fill:#FF0303;}
	.st2{opacity:0.47;fill:url(#SVGID_00000145045745438960890740000014517634739669207974_);enable-background:new    ;}
	.st3{opacity:0.5;fill:url(#SVGID_00000044165493570017347400000007202303193664970649_);enable-background:new    ;}
	.st4{fill:#FFFFFF;}
	.st5{fill:url(#SVGID_00000061449284040247489860000008724457698315762862_);fill-opacity:0.4;}
</style>
<g>
	<defs>
		<rect id="SVGID_1_" width="500" height="500"/>
	</defs>
	<clipPath id="SVGID_00000115476784791586628440000014169932481759043749_">
		<use xlink:href="#SVGID_1_" style="overflow:visible;"/>
	</clipPath>
	<g style="clip-path:url(#SVGID_00000115476784791586628440000014169932481759043749_);">
		<path class="st1" d="M379.4,500H120.6C54,500,0,446,0,379.4V120.6C0,54,54,0,120.6,0h258.8C446,0,500,54,500,120.6v258.8    C500,446,446,500,379.4,500z"/>
		<path class="st1" d="M379.4,500H120.6C54,500,0,446,0,379.4V120.6C0,54,54,0,120.6,0h258.8C446,0,500,54,500,120.6v258.8    C500,446,446,500,379.4,500z"/>
		
			<linearGradient id="SVGID_00000112608722742532692230000006087362220117862806_" gradientUnits="userSpaceOnUse" x1="35.3271" y1="37.327" x2="464.673" y2="466.6729" gradientTransform="matrix(1 0 0 -1 0 502)">
			<stop offset="0" style="stop-color:#FF0303"/>
			<stop offset="1" style="stop-color:#FF4E00;stop-opacity:3.645830e-02"/>
		</linearGradient>
		<path style="opacity:0.47;fill:url(#SVGID_00000112608722742532692230000006087362220117862806_);enable-background:new    ;" d="    M379.4,500H120.6C54,500,0,446,0,379.4V120.6C0,54,54,0,120.6,0h258.8C446,0,500,54,500,120.6v258.8C500,446,446,500,379.4,500z"/>
		
			<linearGradient id="SVGID_00000023993432435460401430000015629204527536845476_" gradientUnits="userSpaceOnUse" x1="35.3271" y1="37.327" x2="464.673" y2="466.6729" gradientTransform="matrix(1 0 0 -1 0 502)">
			<stop offset="4.868660e-04" style="stop-color:#FFC145;stop-opacity:4.000000e-02"/>
			<stop offset="0.328" style="stop-color:#FFB936;stop-opacity:0.3553"/>
			<stop offset="0.9523" style="stop-color:#FFA410;stop-opacity:0.9561"/>
			<stop offset="0.9978" style="stop-color:#FFA20D"/>
		</linearGradient>
		<path style="opacity:0.5;fill:url(#SVGID_00000023993432435460401430000015629204527536845476_);enable-background:new    ;" d="    M379.4,500H120.6C54,500,0,446,0,379.4V120.6C0,54,54,0,120.6,0h258.8C446,0,500,54,500,120.6v258.8C500,446,446,500,379.4,500z"/>
		<path class="st4" d="M371.2,230.6c-3-1.3-6.2-1.9-9.4-1.9h-0.1c-3.6,0-7.1,0.7-10.4,2.1c-3.2,1.4-6.1,3.3-8.6,5.8    c-2.5,2.5-4.4,5.4-5.8,8.6c-1.4,3.3-2.1,6.9-2.1,10.5v0v0c0,3.7,0.7,7.3,2.2,10.6c1.4,3.3,3.4,6.2,5.9,8.7    c2.5,2.5,5.4,4.5,8.7,5.9c3.4,1.5,6.9,2.2,10.6,2.2h0.1h0h0h0h0c4.1,0,8-1,11.6-2.7c3.4-1.7,6.4-4,8.9-6.9l-6.8-5.5    c-1.7,2-3.7,3.5-6,4.6c-2.4,1.2-5.1,1.9-7.9,1.9c-2.1,0-4.2-0.4-6.2-1.1c-1.9-0.7-3.7-1.7-5.3-2.9c-1.6-1.2-3-2.7-4.1-4.4    c-1.1-1.7-2-3.6-2.5-5.6l-0.1-0.3h42l0-7.5c0-3.3-0.6-6.4-1.9-9.5c-1.2-2.9-3-5.5-5.2-7.7C376.7,233.6,374.1,231.8,371.2,230.6z     M343.8,251.9l0.1-0.3c0.5-2,1.3-3.8,2.3-5.5c1.1-1.7,2.4-3.1,4-4.4c1.6-1.2,3.3-2.2,5.2-2.9c2-0.7,4-1,6.1-1    c3.9,0,7.5,1.4,10.4,4c2.8,2.5,4.6,6.1,5,9.9l0,0.3H343.8z"/>
		<path class="st4" d="M271.4,228.7c-15,0-27.2,12.1-27.4,27.1v53.1h9.2v-34c4.6,4.8,10.9,8,18,8.5c0,0,0.1,0,0.2,0    c15.1,0,27.3-12.3,27.3-27.3c0-14.4-11.1-26.2-25.2-27.2c-0.1,0-0.5,0-0.6,0C272.5,228.7,272,228.7,271.4,228.7z M289.5,256.8    c0,10-8.1,18-18,18c-10,0-18-8.1-18-18c0-0.2,0-0.5,0-0.7c0-0.2,0-0.5,0-0.7c0-10,8.1-18,18-18c10,0,18,8.1,18,18    c0,0.2,0,0.5,0,0.7C289.5,256.4,289.5,256.6,289.5,256.8z"/>
		<path class="st4" d="M149,272.5v-22.4h29.5v-8.9H149v-21.9h33.3v-9.4h-42.6v72h45.2v-9.4H149z"/>
		<path class="st4" d="M240,230.2h-10.9l-14.6,18.9l-14.6-18.9H189l19.9,25.9L189,281.9h10.9l14.6-18.9l14.6,18.9H240l-19.9-25.8    L240,230.2z"/>
		<path class="st4" d="M425.2,256c-1.6-1.2-3.4-2.1-5.5-2.8c-2.1-0.7-4.2-1.3-6.5-1.7c-1.7-0.3-3.4-0.7-4.9-1.1    c-1.6-0.4-3-1-4.2-1.6c-1.2-0.6-2.2-1.3-2.9-2.1c-0.7-0.8-1.1-1.7-1.1-2.8c0-1.2,0.3-2.2,0.9-3.2c0.6-0.9,1.4-1.7,2.4-2.3    c1-0.6,2.1-1,3.3-1.3c1.2-0.3,2.4-0.4,3.6-0.4c0.2,0,0.4,0,0.7,0c4.5,0.1,8.4,2.4,10.9,5.9l6.9-4.6c-3.9-5.6-10.4-9.2-17.8-9.2    c-2.5,0-4.9,0.3-7.2,1c-2.3,0.7-4.3,1.6-6.2,2.9c-1.9,1.3-3.3,2.8-4.4,4.8c-1.1,1.9-1.7,4.1-1.7,6.7c0,2.7,0.5,4.8,1.5,6.5    c1,1.7,2.3,3.1,4,4.2c1.7,1.1,3.6,2,5.8,2.6c2.2,0.7,4.5,1.3,7,1.8c1.4,0.3,2.8,0.6,4.1,1c1.3,0.4,2.5,0.9,3.6,1.5    c1,0.6,1.9,1.4,2.5,2.3c0.6,0.9,0.9,2.1,0.9,3.5c0,1.4-0.3,2.6-1,3.6c-0.7,1-1.6,1.9-2.7,2.5c-1.1,0.7-2.3,1.1-3.7,1.5    c-1.3,0.3-2.5,0.4-3.7,0.4c-5.6,0-10.5-2.7-13.5-6.8l-7,5.4c4.9,5.7,12.3,9.4,20.4,9.4c2.5,0,4.9-0.3,7.3-0.9    c2.5-0.6,4.7-1.6,6.7-2.8c2-1.3,3.6-3,4.7-5.1c1.2-2.1,1.8-4.6,1.8-7.6c0-2.6-0.4-4.8-1.3-6.5C428,258.7,426.8,257.2,425.2,256z"/>
		<path class="st4" d="M473.7,260.5c-0.9-1.8-2.1-3.3-3.7-4.4c-1.6-1.2-3.4-2.1-5.5-2.8c-2.1-0.7-4.2-1.3-6.5-1.7    c-1.7-0.3-3.4-0.7-4.9-1.1c-1.6-0.4-3-1-4.2-1.6c-1.2-0.6-2.2-1.3-2.9-2.1c-0.7-0.8-1.1-1.7-1.1-2.8c0-1.2,0.3-2.2,0.9-3.2    c0.6-0.9,1.4-1.7,2.4-2.3c1-0.6,2.1-1,3.3-1.3c1.2-0.3,2.4-0.4,3.6-0.4c0.2,0,0.4,0,0.7,0c4.5,0.1,8.4,2.4,10.9,5.9l6.9-4.6h0h0    c-3.9-5.6-10.4-9.2-17.8-9.2h-0.1c-2.4,0-4.8,0.3-7.1,1c-2.3,0.6-4.4,1.6-6.2,2.9c-1.9,1.3-3.3,2.8-4.4,4.8    c-1.1,1.9-1.7,4.2-1.7,6.7c0,2.7,0.5,4.8,1.5,6.5c1,1.7,2.3,3.1,4,4.1s3.6,2,5.9,2.6c2.2,0.7,4.5,1.3,7,1.8c1.4,0.3,2.8,0.6,4.1,1    c1.3,0.4,2.5,0.9,3.6,1.5c1,0.6,1.9,1.4,2.5,2.3c0.6,0.9,0.9,2.1,0.9,3.4c0,1.4-0.3,2.6-1,3.6c-0.7,1-1.6,1.9-2.7,2.5    c-1.1,0.7-2.3,1.2-3.7,1.5c-1.3,0.3-2.5,0.4-3.7,0.4h-0.1c-5.5,0-10.4-2.7-13.4-6.8l-7,5.4c4.9,5.7,12.3,9.4,20.4,9.4v0    c2.5,0,4.9-0.3,7.3-0.9c2.5-0.6,4.7-1.6,6.7-2.8c2-1.3,3.6-3,4.7-5.1c1.2-2.1,1.8-4.6,1.8-7.6C475,264.4,474.6,262.3,473.7,260.5z    "/>
		<path class="st4" d="M314.7,230.1h-9.2v24.7c0,0.4,0,0.8,0,1.2v26h9.2V256c0-10,8.1-18.2,18.1-18.2v-9.2c-6.9,0-13.2,2.6-18.1,6.9    V230.1z"/>
		<path class="st4" d="M104.3,209.9h-9.2v72h9.2V209.9z"/>
		<path class="st4" d="M62.1,209.9h-9.5l-27.6,72h9l6.6-17.3h33.4l6.6,17.3h9L62.1,209.9z M44.3,255.1L57.4,221l13.1,34.1H44.3z"/>
		<path class="st4" d="M126.4,230.5h-9.2v51.4h9.2V230.5z"/>
		<path class="st4" d="M121.9,200c-0.2,0-0.4,0.2-0.4,0.4c0,7.4-6,13.5-13.4,13.5c-0.2,0-0.4,0.2-0.4,0.4c0,0.2,0.2,0.4,0.4,0.4    c7.4,0,13.4,6.1,13.4,13.5c0,0.2,0.2,0.4,0.4,0.4c0.2,0,0.4-0.2,0.4-0.4c0-7.4,6-13.4,13.4-13.4c0.2,0,0.4-0.2,0.4-0.4    c0-0.2-0.2-0.4-0.4-0.4c-7.4,0-13.4-6.1-13.4-13.5v0c0-0.1,0-0.2-0.1-0.3C122.1,200.1,122,200,121.9,200z"/>
		<path class="st4" d="M472.1,116.1c1.2,0,2.2-0.7,2.6-1.8c0.4-1.2,0.3-2.4,0-3.4c-0.4-1.1-1.5-1.9-2.6-1.9    c-12.2-0.4-23.8-3.4-34.1-8.5C421,92.7,407.3,79,399.6,62.1c-5-10.2-8-21.6-8.5-33.6c-0.1-1.9-1.7-3.4-3.6-3.4h0h0    c-1.9,0-3.5,1.5-3.6,3.4c-0.5,12.1-3.5,23.4-8.5,33.6c-7.7,16.9-21.4,30.6-38.3,38.3c-10.3,5-21.7,8.1-33.8,8.5    c-1.5,0-2.9,1.1-3.2,2.6c-0.1,0.6-0.1,1.4,0,2.1c0,0,0,0,0,0c0.3,1.5,1.7,2.4,3.1,2.5h-0.3c12.2,0.4,23.8,3.4,34.1,8.5    c17,7.6,30.7,21.3,38.4,38.2c5,10.2,8,21.6,8.5,33.6c0.1,1.9,1.7,3.4,3.6,3.4h0h0c1.9,0,3.5-1.5,3.6-3.4    c0.5-12.1,3.5-23.4,8.5-33.6c7.7-16.9,21.4-30.6,38.3-38.3c10.3-5,21.7-8.1,33.8-8.5H472.1z"/>
		
			<linearGradient id="SVGID_00000035501040336895016230000001505791731977180811_" gradientUnits="userSpaceOnUse" x1="299.9912" y1="389.5007" x2="474.9855" y2="389.5007" gradientTransform="matrix(1 0 0 -1 0 502)">
			<stop offset="1.200180e-03" style="stop-color:#B7D9D9"/>
			<stop offset="0.5651" style="stop-color:#FFF4F1"/>
		</linearGradient>
		<path style="fill:url(#SVGID_00000035501040336895016230000001505791731977180811_);fill-opacity:0.4;" d="M472.1,116.1    c1.2,0,2.2-0.7,2.6-1.8c0.4-1.2,0.3-2.4,0-3.4c-0.4-1.1-1.5-1.9-2.6-1.9c-12.2-0.4-23.8-3.4-34.1-8.5    C421,92.7,407.3,79,399.6,62.1c-5-10.2-8-21.6-8.5-33.6c-0.1-1.9-1.7-3.4-3.6-3.4h0h0c-1.9,0-3.5,1.5-3.6,3.4    c-0.5,12.1-3.5,23.4-8.5,33.6c-7.7,16.9-21.4,30.6-38.3,38.3c-10.3,5-21.7,8.1-33.8,8.5c-1.5,0-2.9,1.1-3.2,2.6    c-0.1,0.6-0.1,1.4,0,2.1c0,0,0,0,0,0c0.3,1.5,1.7,2.4,3.1,2.5h-0.3c12.2,0.4,23.8,3.4,34.1,8.5c17,7.6,30.7,21.3,38.4,38.2    c5,10.2,8,21.6,8.5,33.6c0.1,1.9,1.7,3.4,3.6,3.4h0h0c1.9,0,3.5-1.5,3.6-3.4c0.5-12.1,3.5-23.4,8.5-33.6    c7.7-16.9,21.4-30.6,38.3-38.3c10.3-5,21.7-8.1,33.8-8.5H472.1z"/>
		<path class="st4" d="M212.4,539.4c-10.8,0-19.5-8.7-19.5-19.5c0-10.7,8.7-19.5,19.5-19.5c85.7,0,155.5-69.8,155.5-155.5    c0-10.8,8.7-19.5,19.5-19.5c10.8,0,19.5,8.7,19.5,19.5C406.9,452.1,319.7,539.4,212.4,539.4z"/>
	</g>
</g>
</svg>