<svg width="80" height="80" viewBox="0 0 80 80" fill="none" xmlns="http://www.w3.org/2000/svg">
<g clipPath="url(#clip0_261_12130)">
<rect width="80" height="80" rx="10" fill="#5765EC"/>
<path d="M54.401 26.7369C51.613 25.4488 48.6712 24.5295 45.6487 24.0019C45.6215 23.9974 45.5936 24.0015 45.5687 24.0136C45.5439 24.0257 45.5233 24.0452 45.5099 24.0695C45.1292 24.7459 44.7104 25.6321 44.4192 26.3243C41.1606 25.8264 37.8461 25.8264 34.5875 26.3243C34.261 25.5524 33.8917 24.7996 33.4811 24.0695C33.4673 24.045 33.4464 24.0255 33.4211 24.0134C33.3959 24.0013 33.3676 23.9973 33.34 24.0019C30.3166 24.5272 27.3738 25.4449 24.5878 26.7369C24.564 26.7465 24.5443 26.764 24.5318 26.7865C18.9552 35.1721 17.4279 43.3502 18.1781 51.4269C18.1828 51.4668 18.203 51.5032 18.2341 51.5283C21.48 53.9487 25.1104 55.7969 28.9706 56.9939C28.9979 57.0024 29.0271 57.002 29.0541 56.9927C29.081 56.9833 29.1044 56.9656 29.1207 56.9421C29.9493 55.8057 30.6861 54.6061 31.3199 53.3457C31.3287 53.3284 31.3336 53.3095 31.3345 53.2901C31.3353 53.2708 31.332 53.2515 31.3248 53.2335C31.3176 53.2155 31.3066 53.1993 31.2926 53.186C31.2786 53.1727 31.262 53.1626 31.2438 53.1563C30.0864 52.7082 28.9654 52.1699 27.8911 51.5464C27.8607 51.5292 27.838 51.5008 27.828 51.4671C27.8179 51.4335 27.8213 51.3972 27.8374 51.366C27.8467 51.3464 27.8605 51.3294 27.8777 51.3164C28.1017 51.1473 28.3279 50.9669 28.5429 50.7887C28.5619 50.7736 28.5846 50.7639 28.6087 50.7608C28.6328 50.7576 28.6572 50.761 28.6795 50.7707C35.7185 54.0063 43.3375 54.0063 50.2914 50.7707C50.3145 50.7602 50.3401 50.7563 50.3653 50.7594C50.3899 50.7629 50.4131 50.773 50.4325 50.7887C50.6475 50.9691 50.8737 51.1473 51.0999 51.3164C51.1279 51.3364 51.1473 51.3665 51.1539 51.4005C51.1606 51.4345 51.1541 51.4697 51.1357 51.499C51.1241 51.5184 51.1079 51.5346 51.0887 51.5464C50.0159 52.1777 48.8939 52.7143 47.7315 53.154C47.7134 53.1607 47.697 53.1713 47.6833 53.185C47.6696 53.1987 47.6589 53.2152 47.6521 53.2333C47.6453 53.2515 47.6425 53.271 47.6439 53.2904C47.6452 53.3097 47.6507 53.3286 47.6599 53.3457C48.3049 54.6039 49.0439 55.8034 49.8547 56.9421C49.871 56.9656 49.8943 56.9833 49.9213 56.9927C49.9483 57.002 49.9775 57.0024 50.0047 56.9939C53.8721 55.8008 57.509 53.9525 60.7592 51.5283C60.7754 51.5167 60.7888 51.5015 60.7985 51.4839C60.8082 51.4664 60.8139 51.4469 60.8151 51.4269C61.711 42.092 59.3124 33.9793 54.4548 26.7888C54.45 26.7768 54.4428 26.7659 54.4335 26.757C54.4242 26.748 54.4131 26.7412 54.401 26.7369ZM32.3703 46.5092C30.2494 46.5092 28.5048 44.5475 28.5048 42.1461C28.5048 39.7425 30.2181 37.7831 32.3703 37.7831C34.5382 37.7831 36.2672 39.7583 36.2358 42.1461C36.2358 44.5497 34.5225 46.5092 32.3703 46.5092ZM46.6588 46.5092C44.5401 46.5092 42.7933 44.5475 42.7933 42.1461C42.7933 39.7425 44.5043 37.7831 46.6565 37.7831C48.8267 37.7831 50.5557 39.7583 50.5221 42.1461C50.5221 44.5497 48.8289 46.5092 46.6588 46.5092Z" fill="#FEFEFE"/>
</g>
<defs>
<clipPath id="clip0_261_12130">
<rect width="80" height="80" fill="white"/>
</clipPath>
</defs>
</svg>
