<svg width="80" height="80" viewBox="0 0 80 80" fill="none" xmlns="http://www.w3.org/2000/svg">
<g clipPath="url(#clip0_261_12156)">
<rect width="80" height="80" rx="10" fill="#2685FD"/>
<path fill-rule="evenodd" clip-rule="evenodd" d="M44.3172 19.667H23.0601V59.6639H57.6029V32.166L44.3172 19.667ZM54.9457 44.6651H25.7172V22.1668H44.3172V32.166H54.9457V44.6651ZM53.6566 54.1086H51.691C51.6481 54.5456 51.5457 54.9114 51.3837 55.2059C51.2264 55.5004 50.9953 55.7236 50.6904 55.8756C50.3902 56.0276 49.9995 56.1036 49.5182 56.1036C49.1227 56.1036 48.782 56.0276 48.4961 55.8756C48.2102 55.7236 47.9767 55.5027 47.7956 55.213C47.6146 54.9232 47.4812 54.5694 47.3954 54.1514C47.3096 53.7334 47.2667 53.2608 47.2667 52.7335V51.9284C47.2667 51.3774 47.3144 50.893 47.4097 50.475C47.505 50.0522 47.6479 49.7007 47.8385 49.4205C48.0291 49.1355 48.2674 48.9218 48.5533 48.7793C48.8439 48.6368 49.1799 48.5655 49.5611 48.5655C50.0519 48.5655 50.445 48.6463 50.7404 48.8078C51.0406 48.9645 51.2646 49.1949 51.4123 49.4989C51.5648 49.8029 51.6601 50.1733 51.6982 50.6103H53.6637C53.597 49.9074 53.4017 49.2851 53.0776 48.7436C52.7536 48.2021 52.2986 47.777 51.7125 47.4683C51.1264 47.1548 50.4092 46.998 49.5611 46.998C48.9083 46.998 48.3174 47.1144 47.7885 47.3472C47.2643 47.5799 46.8141 47.9124 46.4376 48.3446C46.066 48.7721 45.7801 49.2899 45.5799 49.8979C45.3798 50.5058 45.2797 51.1875 45.2797 51.9427V52.7335C45.2797 53.4888 45.3774 54.1704 45.5728 54.7784C45.7681 55.3816 46.0493 55.8993 46.4162 56.3316C46.7878 56.7591 47.2334 57.0892 47.7528 57.3219C48.2769 57.5499 48.8654 57.6639 49.5182 57.6639C50.3664 57.6639 51.0883 57.5119 51.6839 57.2079C52.2795 56.9039 52.7441 56.486 53.0776 55.954C53.4112 55.4172 53.6042 54.8021 53.6566 54.1086ZM44.4483 52.0709V52.6053C44.4483 53.389 44.3435 54.0944 44.1338 54.7214C43.9242 55.3436 43.6264 55.8732 43.2404 56.3102C42.8544 56.7472 42.3946 57.0821 41.8609 57.3148C41.3273 57.5476 40.734 57.6639 40.0812 57.6639C39.4379 57.6639 38.8471 57.5476 38.3086 57.3148C37.775 57.0821 37.3128 56.7472 36.922 56.3102C36.5313 55.8732 36.2287 55.3436 36.0143 54.7214C35.7999 54.0944 35.6927 53.389 35.6927 52.6053V52.0709C35.6927 51.2824 35.7999 50.5771 36.0143 49.9549C36.2287 49.3326 36.5289 48.803 36.9149 48.366C37.3008 47.9243 37.7607 47.587 38.2943 47.3543C38.8328 47.1215 39.4236 47.0052 40.0669 47.0052C40.7197 47.0052 41.313 47.1215 41.8466 47.3543C42.3803 47.587 42.8401 47.9243 43.2261 48.366C43.6168 48.803 43.917 49.3326 44.1267 49.9549C44.3411 50.5771 44.4483 51.2824 44.4483 52.0709ZM42.4613 52.6053V52.0567C42.4613 51.4914 42.4089 50.9951 42.3041 50.5676C42.1993 50.1354 42.0444 49.772 41.8395 49.4775C41.6346 49.183 41.3821 48.9621 41.0819 48.8149C40.7817 48.6629 40.4434 48.5869 40.0669 48.5869C39.6857 48.5869 39.3474 48.6629 39.052 48.8149C38.7613 48.9621 38.5135 49.183 38.3086 49.4775C38.1037 49.772 37.9465 50.1354 37.8369 50.5676C37.7321 50.9951 37.6797 51.4914 37.6797 52.0567V52.6053C37.6797 53.1658 37.7321 53.6621 37.8369 54.0944C37.9465 54.5266 38.1037 54.8924 38.3086 55.1916C38.5183 55.4861 38.7708 55.7094 39.0663 55.8613C39.3617 56.0133 39.7 56.0893 40.0812 56.0893C40.4624 56.0893 40.8007 56.0133 41.0962 55.8613C41.3916 55.7094 41.6394 55.4861 41.8395 55.1916C42.0444 54.8924 42.1993 54.5266 42.3041 54.0944C42.4089 53.6621 42.4613 53.1658 42.4613 52.6053ZM30.1082 57.5214H28.9646H27.8639H26.999V47.1477H27.821H28.9646H30.1511C30.8468 47.1477 31.4805 47.264 32.0523 47.4968C32.6289 47.7295 33.1268 48.0644 33.5461 48.5014C33.9702 48.9336 34.2942 49.4514 34.5182 50.0546C34.7469 50.6578 34.8613 51.3323 34.8613 52.0781V52.5982C34.8613 53.3392 34.7469 54.0136 34.5182 54.6216C34.2942 55.2249 33.9702 55.7426 33.5461 56.1748C33.1268 56.6071 32.6265 56.9396 32.0452 57.1723C31.4638 57.4051 30.8182 57.5214 30.1082 57.5214ZM30.1082 55.9825H28.9646V48.6938H30.1511C30.5894 48.6938 30.9778 48.7674 31.3161 48.9146C31.6544 49.0619 31.9379 49.278 32.1667 49.563C32.4001 49.848 32.5764 50.1995 32.6956 50.6175C32.8147 51.0355 32.8743 51.5176 32.8743 52.0638V52.5982C32.8743 53.3059 32.7694 53.9139 32.5598 54.4221C32.3501 54.9256 32.0404 55.3127 31.6306 55.5835C31.2208 55.8495 30.7133 55.9825 30.1082 55.9825Z" fill="white"/>
</g>
<defs>
<clipPath id="clip0_261_12156">
<rect width="80" height="80" fill="white"/>
</clipPath>
</defs>
</svg>
