<svg version="1.2" xmlns="http://www.w3.org/2000/svg" viewBox="0 0 1600 641" width="50" height="50">
	<title>EBay_logo-svg</title>
	<style>
		.s0 { fill: #e53238 } 
		.s1 { fill: #0064d2 } 
		.s2 { fill: #f5af02 } 
		.s3 { fill: #86b817 } 
	</style>
	<path id="e" fill-rule="evenodd" class="s0" d="m402.4 309v42.2h-319.3c0 67.1 51.1 115 122 115 87.1 0 105-61.1 105-61.1h83.6c0 0-11.1 113.5-183.5 113.5-146.5 0-209.7-72-209.7-186.3 0-144.2 94-192.1 206.8-192.1 152.9 0 195.1 102.4 195.1 168.8zm-317.4-11.6h232.9c0-62-46-103.3-113.5-103.3-59.3 0-119.4 37.5-119.4 103.3z"/>
	<path id="b" fill-rule="evenodd" class="s1" d="m483.9 0.5v200.9c0 0 34.5-60.1 145.8-60.1 118.7 0 189.1 83.9 189.1 188.1 0 112.1-76.6 190.3-189.3 190.3-107.1 0-146.4-61.6-146.4-61.6 0 23.4-2.9 48.9-2.9 48.9h-79.7c0 0 1.8-35.6 1.8-60.8v-445.7zm0 329.7c0 70.6 44.1 134.4 125.8 134.4 68.5 0 124.7-53.5 124.7-135.2 0-76.2-48.7-133-125.2-133-85.7 0-125.3 67.9-125.3 133.8z"/>
	<path id="a" fill-rule="evenodd" class="s2" d="m1191.5 279.5v175.4c0 20.3 2.9 52.1 2.9 52.1h-75.1c0 0-2-25.6-2-51.6 0 0-38.1 65.3-156.3 65.3-86.8 0-151-41.8-151-118.5 0-78 69.5-116.4 200.9-116.4h99.1v-17.5c0-49.1-43.3-74.6-99.1-74.6-85.8 0-90.2 54.2-90.2 54.2h-84.5c0-14.8 10.9-107.7 180.6-107.7 81.9 0 174.7 24.2 174.7 139.3zm-297 122.7c0 35 25.9 65.1 86.3 65.1 110.4 0 129.2-75.5 129.2-105.9v-23.2c-128.3 0-215.5 0.4-215.5 64z"/>
	<path id="y" class="s3" d="m1146 154.8h95l136.4 273 136-273h86.1l-247.8 486.1h-90.3l71.5-135.5z"/>
</svg>