<svg version="1.2" xmlns="http://www.w3.org/2000/svg" viewBox="0 0 1303 1478" width="40" height="40">
	<title>etsy-svg</title>
	<style>
		.s0 { fill: #fff } 
	</style>
	<path id="Layer" class="s0" d="m436.8 148.4v546.7c0 0 192.6 0 295.7-7.8 81.1-14.2 96-22 111-103.1l29.8-118.8h88.2l-14.9 259.6 7.8 265.9h-88.9l-22-103.9c-22.1-73.9-51.9-88.9-111-96-73.9-7.8-295.7-7.8-295.7-7.8v458.5c0 88.2 44.7 125.9 147.9 125.9h310.6c96 0 191.9-7.8 251.7-147.9l80.4-177.7h74.6c-7.8 36.9-44.8 362.5-51.9 435.8 0 0-280.8-7.1-398.8-7.1h-532.6l-317.7 7.1v-80.4l103.1-22.7c74.6-14.9 96.6-37 96.6-96 0 0 7.8-199.8 7.8-532.5 0-332-7.8-531.8-7.8-531.8 0-66.2-22-81.1-96.6-96.1l-103.1-21.8v-81.1l310.7 6.4h591.5c118 0 317-21.3 317-21.3 0 0-7.1 125.1-14.9 420.9h-81.1l-29.9-103.9c-29.1-132.9-73.2-199.1-154.9-199.1h-464.9c-37.7 0.1-37.7 7.2-37.7 30z"/>
</svg>