<?xml version="1.0" encoding="utf-8"?><svg version="1.1" id="Layer_1" xmlns="http://www.w3.org/2000/svg" xmlns:xlink="http://www.w3.org/1999/xlink" x="0px" y="0px" viewBox="0 0 122.88 83.92" style="enable-background:new 0 0 122.88 83.92" xml:space="preserve"><g><path d="M76.38,0c10.1,0,19.26,4.11,25.9,10.72c6.63,6.63,10.72,15.77,10.72,25.89c0,7.39-2.2,14.29-5.96,20.04l15.85,17.27 l-10.93,9.99L96.66,67.1c-5.8,3.87-12.79,6.12-20.28,6.12c-8.34,0-16.04-2.8-22.2-7.5c-3.84,3.87-7.51,7.55-10.6,10.64L22.35,55.39 L7.43,69.88L0,62.45v0l22.48-21.85c7.02,7.02,13.96,13.96,21.05,20.96l3.29-3.32c-4.44-6.06-7.05-13.52-7.05-21.62 c0-10.1,4.11-19.26,10.72-25.89C57.12,4.08,66.26,0,76.38,0L76.38,0z M52.44,52.57l14.63-14.77l-8.71-8.71l24.5-0.22v24.72 l-8.37-8.37c-4.2,4.25-9.49,9.6-14.83,14.99c4.73,3.45,10.57,5.5,16.87,5.5c7.91,0,15.09-3.22,20.27-8.41 c5.19-5.19,8.41-12.36,8.41-20.27c0-7.91-3.22-15.09-8.41-20.27h0c-5.19-5.19-12.36-8.41-20.27-8.41c-7.91,0-15.09,3.22-20.27,8.41 c-5.19,5.19-8.41,12.36-8.41,20.27C47.85,42.75,49.54,48.09,52.44,52.57L52.44,52.57z"/></g></svg>