<?xml version="1.0" encoding="utf-8"?>
<!-- Generator: Adobe Illustrator 19.0.0, SVG Export Plug-In . SVG Version: 6.00 Build 0)  -->
<svg version="1.1" id="layer" xmlns="http://www.w3.org/2000/svg" xmlns:xlink="http://www.w3.org/1999/xlink" x="0px" y="0px"
	 viewBox="-153 -46 652 652" width="50" height="50" style="enable-background:new -153 -46 652 652;" xml:space="preserve">
<style type="text/css">
	.st0{fill:#FF5533;}
</style>
<path class="st0" d="M-3.1,250c-0.2-15.7,18.8-23.8,29.9-12.8c11.2,11,3.6,30.1-12.2,30.2h-0.3c-9.5,0.1-17.3-7.6-17.4-17.1V250z
	 M27.9,218.6c0.2,22.9,34.6,22.8,34.6-0.2c0-22.9-34.3-23.1-34.6-0.2V218.6z M27.9,218.6"/>
<path class="st0" d="M70.5,197.3v31.2c24.4,0,43.8,20.1,43.8,46.1c0,25.9-19.4,46-43.8,46c-24.3,0-43.8-19.9-43.8-46H-7.5
	c0,43.4,34.5,77.4,77.9,77.4c43.4,0,77.9-34,77.9-77.4C148.4,231.1,113.9,197.3,70.5,197.3L70.5,197.3z M422.4,491.7v-29.8h55v-29.7
	h-55v-29.5h60.8V373h-94.4v148.5h95.4v-29.8H422.4z M290.2,372.6h-49.1v148.8h49.1c46,0,78.7-31.5,78.7-74.2
	C368.9,404.5,336.2,372.6,290.2,372.6L290.2,372.6z M292.9,491.7h-18.2v-89.1h18.2c24.9,0,41.8,19.2,41.8,44.6
	C334.6,472.6,317.8,491.7,292.9,491.7L292.9,491.7z M110.9,464.3c0,17.1-12.3,29.7-28.9,29.7C65.4,494,53,481.4,53,464.3V373H19.6
	v90.6c0,35.1,26.3,61,62.3,61c35.9,0,62.1-25.9,62.1-61V373h-33.1V464.3z M293.1,291.1v-90.8h-33.2v91.3c0,17.1-12.4,29.8-28.9,29.8
	c-16.5,0-28.9-12.7-28.9-29.8v-91.3h-33.2v90.8c0,35,26.1,60.9,62.1,60.9C266.9,352,293.1,326,293.1,291.1L293.1,291.1z M-92.2,349
	h33.4v-56.5l55.9-92.2h-37.6l-35.3,60.9l-34.7-60.9h-37.8l56.1,92.6V349z M129.9,27.6h112.9v30H129.9V27.6z M115.6,146.3H53.7v-29.7
	h55.2V86.8H53.7V57.6h60.9v-30H20.3v148.7h95.2V146.3z M369.1,311.4l-17.3-18.2l17.1-18.5l-17.3-18.2l16.9-18.5l-17.3-18.2
	l19.1-19.6h-34.6L316.9,220l17.2,18.2l-16.9,18.5l17.1,18.2l-16.9,18.5l17.2,18.3l-17,18.4l18.3,19.1h34.8l-18.7-19.2L369.1,311.4z
	 M207,442.8c4.9-4.4,13.2-11.8,13.2-25.6s-8.3-21-13.2-25.3l-0.5-0.7c-2-2.2-3.1-5.1-3-8v-10.6h-33.5v13.9h0.2v0.5
	c0,13.7,8.3,21.1,13.2,25.5c4.9,4.4,3.5,3.3,3.5,4.6s0,1.6-3.5,4.8c-3.5,3.2-12.5,11.3-13.1,24v2.3c0.5,12.7,8.3,19.8,13.1,24
	c4.8,4.2,3.5,3.3,3.5,4.6c0,1.2,0,1.6-3.5,4.8c-3.5,3.2-13.2,11.8-13.2,25.5v0.3h-0.2v13.9h33.5V511c0-3,1.1-5.8,3-8.1l0.5-0.5
	c4.9-4.4,13.2-11.8,13.2-25.5c0-13.8-8.3-21-13.2-25.6c-4.9-4.6-3.5-3.2-3.5-4.2c0-1.1,0.5-1.4,3.7-4.2H207z M169.6,148.6h33.4v27.7
	h-33.4V148.6z M169.6,108.9h33.4v27.7h-33.4V108.9z M169.6,69.4h33.4v27.6h-33.4V69.4z M455.8,349l-40.5-56.8
	c19.8-5.8,33.5-23.9,33.6-44.6c0-27-22.2-47.3-50.4-47.3h-19.4v30.2h18.2c21.6,2.2,21.6,33.6,0,35.8h-18.2v28.5l36.2,54.2H455.8z
	 M-8.5,66.9C-17,41-44.9,24.6-76.8,24.6c-40.2,0-70.4,27.2-70.4,66.7v20.5c0,39,28.4,67.8,63.7,67.8c20.1,0.1,39.1-9.5,51-25.6v22.4
	h29.1V94.2h-78.7v27.9h42.9c-3.5,15.3-18.2,27.2-36.9,27.2c-18.7,0-38.6-15.3-38.6-37.6V91.3c0-20.9,15.7-36.5,37.7-36.5
	c17.1,0,32.5,9.4,37.6,23.1L-8.5,66.9z M-8.5,412.1c-8.5-25.9-36.4-42.3-68.3-42.3c-40.2,0-70.4,27.1-70.4,66.7v20.5
	c0,39,28.4,67.7,63.7,67.7c20.1,0.1,39.1-9.4,51-25.6v22.4h29.1v-82h-78.7v27.9h42.9c-3.5,15.4-18.2,27.2-36.9,27.2
	c-18.7,0-38.6-15.3-38.6-37.6v-20.5c0-21,15.7-36.5,37.7-36.5c17.1,0,32.5,9.4,37.6,23.1L-8.5,412.1z M-8.5,412.1"/>
</svg>
