<svg enable-background="new 0 0 1024 1024" viewBox="0 0 1024 1024" xmlns="http://www.w3.org/2000/svg"><circle cx="512" cy="512" fill="#0caa41" r="512"/><path clip-rule="evenodd" d="m621.7 694.9h-292.6c0 40.4 32.7 73.1 73.1 73.1h219.4c40.4 0 73.1-32.7 73.1-73.1v-300.4c0-1.5-1.2-2.7-2.7-2.7h-67.8c-1.5 0-2.7 1.2-2.7 2.7v300.4zm0-438.9c40.4 0 73.1 32.7 73.1 73.1h-292.5v300.4c0 1.5-1.2 2.7-2.7 2.7h-67.8c-1.5 0-2.7-1.2-2.7-2.7v-300.4c0-40.4 32.7-73.1 73.1-73.1z" fill="#fff" fill-rule="evenodd"/></svg>