<?xml version="1.0" encoding="utf-8"?>
<svg viewBox="93.697 92.862 62.34 66.047" width="50px" height="50px" xmlns="http://www.w3.org/2000/svg">
  <defs>
    <style>.cls-1{fill:#d12d2c;}</style>
  </defs>
  <path class="cls-1" d="M 117.735 49.402 C 113.685 49.408 110.405 52.692 110.405 56.742 L 110.405 68.662 L 92.075 67.742 L 92.075 54.902 C 92.075 47.843 84.433 43.431 78.32 46.961 C 75.482 48.599 73.735 51.626 73.735 54.902 L 73.735 102.582 C 73.735 109.641 81.376 114.053 87.49 110.524 C 90.327 108.886 92.075 105.858 92.075 102.582 L 92.075 87.912 L 110.405 87.912 L 110.405 102.582 C 110.613 108.229 116.856 111.532 121.642 108.528 C 123.7 107.237 124.985 105.01 125.075 102.582 L 125.075 56.742 C 125.075 52.688 121.788 49.402 117.735 49.402 Z" transform="matrix(1, 0, 0, 1, 30.961739, 47.143391)"/>
  <path class="cls-1" d="M 99.405 60.402 L 99.405 66.272 L 103.075 66.452 L 103.075 58.572 C 103.093 56.721 103.671 54.918 104.735 53.402 C 101.623 54.315 99.478 57.16 99.455 60.402 L 99.405 60.402 Z" transform="matrix(1, 0, 0, 1, 30.961739, 47.143391)"/>
  <path class="cls-1" d="M 103.075 89.742 L 99.405 89.742 L 99.405 98.912 C 99.424 102.156 101.571 105.002 104.685 105.912 C 103.639 104.39 103.078 102.588 103.075 100.742 L 103.075 89.742 Z" transform="matrix(1, 0, 0, 1, 30.961739, 47.143391)"/>
  <path class="cls-1" d="M 108.575 89.742 L 104.905 89.742 L 104.905 100.742 C 104.928 103.985 107.073 106.829 110.185 107.742 C 109.142 106.219 108.581 104.418 108.575 102.572 L 108.575 89.742 Z" transform="matrix(1, 0, 0, 1, 30.961739, 47.143391)"/>
  <path class="cls-1" d="M 104.905 58.572 L 104.905 66.572 L 108.575 66.752 L 108.575 56.742 C 108.578 54.896 109.139 53.094 110.185 51.572 C 107.071 52.483 104.924 55.329 104.905 58.572 Z" transform="matrix(1, 0, 0, 1, 30.961739, 47.143391)"/>
  <path class="cls-1" d="M 67.225 54.392 C 64.45 56.036 62.745 59.018 62.735 62.242 L 62.735 97.082 C 62.747 100.304 64.452 103.282 67.225 104.922 C 66.681 103.596 66.403 102.176 66.405 100.742 L 66.405 58.572 C 66.406 57.139 66.684 55.72 67.225 54.392 Z" transform="matrix(1, 0, 0, 1, 30.961739, 47.143391)"/>
  <path class="cls-1" d="M 71.905 54.902 C 71.912 53.475 72.193 52.063 72.735 50.742 C 69.966 52.383 68.258 55.354 68.235 58.572 L 68.235 100.742 C 68.25 104.569 70.643 107.982 74.235 109.302 C 72.735 107.382 71.916 105.018 71.905 102.582 L 71.905 54.902 Z" transform="matrix(1, 0, 0, 1, 30.961739, 47.143391)"/>
</svg>