<svg width="80" height="80" viewBox="0 0 80 80" fill="none" xmlns="http://www.w3.org/2000/svg">
<g clipPath="url(#clip0_261_12113)">
<rect width="80" height="80" rx="10" fill="black"/>
<g clipPath="url(#clip1_261_12113)">
<path d="M42.1781 40C42.1781 45.2806 37.8856 49.5625 32.588 49.5625C31.3306 49.5642 30.0851 49.3182 28.9227 48.8385C27.7604 48.3589 26.7039 47.655 25.8135 46.767C24.9232 45.879 24.2165 44.8244 23.7337 43.6633C23.251 42.5022 23.0017 41.2575 23 40C23 34.7173 27.2925 30.4375 32.588 30.4375C33.8456 30.4356 35.0913 30.6814 36.2539 31.1609C37.4165 31.6404 38.4733 32.3443 39.3638 33.2323C40.2544 34.1203 40.9613 35.175 41.4442 36.3362C41.9271 37.4974 42.1765 38.7424 42.1781 40ZM52.6969 40C52.6969 44.9725 50.5506 49.0015 47.9029 49.0015C45.2551 49.0015 43.1089 44.9704 43.1089 40C43.1089 35.0275 45.2551 30.9985 47.9029 30.9985C50.5506 30.9985 52.6969 35.0296 52.6969 40ZM57 40C57 44.454 56.2456 48.0644 55.3128 48.0644C54.382 48.0644 53.6276 44.4519 53.6276 40C53.6276 35.546 54.382 31.9356 55.3149 31.9356C56.2456 31.9356 57 35.546 57 40Z" fill="white"/>
</g>
</g>
<defs>
<clipPath id="clip0_261_12113">
<rect width="80" height="80" fill="white"/>
</clipPath>
<clipPath id="clip1_261_12113">
<rect width="34" height="34" fill="white" transform="translate(23 23)"/>
</clipPath>
</defs>
</svg>
