<svg version="1.2" baseProfile="tiny-ps" xmlns="http://www.w3.org/2000/svg" viewBox="0 0 1521 546" width="50" height="50">
	<title>Logo_NIKE-svg</title>
	<style>
		tspan { white-space:pre }
		.shp0 { fill: #000000 } 
	</style>
	<path id="path2" class="shp0" d="M169.31 542.8C124.07 541 87.05 528.61 58.1 505.59C52.58 501.2 39.42 488.01 35 482.45C23.26 467.68 15.28 453.3 9.96 437.35C-6.42 388.25 2.01 323.82 34.07 253.11C61.52 192.58 103.88 132.53 177.77 49.38C188.66 37.14 221.08 1.36 221.28 1.36C221.36 1.36 219.6 4.42 217.37 8.15C198.16 40.36 181.72 78.3 172.76 111.15C158.37 163.85 160.11 209.08 177.84 244.16C190.08 268.32 211.05 289.25 234.63 300.82C275.92 321.06 336.37 322.74 410.19 305.72C415.27 304.54 667.12 237.63 969.85 157.02C1272.58 76.41 1520.31 10.51 1520.35 10.56C1520.44 10.63 817.02 311.88 451.86 468.17C394.03 492.91 378.57 499.16 351.38 508.72C281.89 533.14 219.63 544.8 169.31 542.8Z" />
</svg>