<svg width="80" height="80" viewBox="0 0 80 80" fill="none" xmlns="http://www.w3.org/2000/svg">
<path d="M76.5901 28.3435L69.6935 21.4468C69.1371 20.8986 68.3955 20.5788 67.6149 20.5504C66.8344 20.5221 66.0715 20.7872 65.4768 21.2935C64.5576 22.0763 63.3778 22.485 62.1714 22.4387C60.9649 22.3924 59.8199 21.8944 58.9635 21.0435C58.1125 20.187 57.6145 19.042 57.5682 17.8356C57.5219 16.6291 57.9307 15.4493 58.7135 14.5301C59.2193 13.935 59.4839 13.1719 59.4549 12.3913C59.4259 11.6108 59.1054 10.8694 58.5568 10.3135L51.6568 3.41013C51.0736 2.82736 50.2829 2.5 49.4585 2.5C48.634 2.5 47.8433 2.82736 47.2601 3.41013L36.2668 14.4001C35.5892 15.081 35.0781 15.9092 34.7735 16.8201C34.7144 16.9956 34.6157 17.1551 34.485 17.2863C34.3544 17.4175 34.1953 17.5169 34.0201 17.5768C33.1074 17.8814 32.2779 18.3938 31.5968 19.0735L3.41013 47.2601C2.82736 47.8433 2.5 48.634 2.5 49.4585C2.5 50.2829 2.82736 51.0736 3.41013 51.6568L10.3101 58.5501C10.8663 59.0997 11.6083 59.4207 12.3896 59.4497C13.171 59.4787 13.9348 59.2136 14.5301 58.7068C15.4477 57.9209 16.6281 57.5102 17.8354 57.5568C19.0426 57.6034 20.1878 58.1038 21.0421 58.9581C21.8964 59.8124 22.3969 60.9576 22.4435 62.1649C22.4901 63.3722 22.0794 64.5525 21.2935 65.4701C20.7866 66.0655 20.5215 66.8293 20.5505 67.6106C20.5795 68.392 20.9006 69.134 21.4501 69.6901L28.3468 76.5835C28.9298 77.1652 29.7198 77.4919 30.5435 77.4919C31.3671 77.4919 32.1571 77.1652 32.7401 76.5835L60.9268 48.3968C61.6068 47.7168 62.1201 46.8868 62.4268 45.9768C62.4854 45.8011 62.584 45.6413 62.7147 45.5101C62.8454 45.3788 63.0047 45.2796 63.1801 45.2201C64.0935 44.9168 64.9201 44.4035 65.6001 43.7235L76.5935 32.7335C77.1742 32.1506 77.5003 31.3613 77.5003 30.5385C77.5003 29.7157 77.1742 28.9264 76.5935 28.3435H76.5901ZM40.9068 23.7101C40.438 24.1783 39.8026 24.4413 39.1401 24.4413C38.4776 24.4413 37.8422 24.1783 37.3735 23.7101L35.5735 21.9101C35.1319 21.4362 34.8915 20.8094 34.9029 20.1617C34.9143 19.5141 35.1767 18.8961 35.6347 18.4381C36.0928 17.98 36.7107 17.7176 37.3584 17.7062C38.0061 17.6948 38.6329 17.9352 39.1068 18.3768L40.9068 20.1768C41.375 20.6455 41.6379 21.281 41.6379 21.9435C41.6379 22.606 41.375 23.2414 40.9068 23.7101ZM47.7835 30.5868C47.3147 31.055 46.6793 31.3179 46.0168 31.3179C45.3543 31.3179 44.7189 31.055 44.2501 30.5868L42.5301 28.8668C42.1088 28.3892 41.8854 27.769 41.9053 27.1325C41.9252 26.4959 42.1869 25.8909 42.6373 25.4406C43.0876 24.9903 43.6926 24.7285 44.3291 24.7086C44.9657 24.6887 45.5859 24.9121 46.0635 25.3335L47.7835 27.0501C48.0163 27.2824 48.201 27.5582 48.327 27.862C48.4531 28.1657 48.5179 28.4913 48.5179 28.8201C48.5179 29.149 48.4531 29.4746 48.327 29.7783C48.201 30.082 48.0163 30.3579 47.7835 30.5901V30.5868ZM54.6568 37.4601C54.188 37.9283 53.5526 38.1913 52.8901 38.1913C52.2276 38.1913 51.5922 37.9283 51.1235 37.4601L49.4035 35.7435C48.9619 35.2695 48.7215 34.6427 48.7329 33.9951C48.7443 33.3474 49.0067 32.7294 49.4647 32.2714C49.9228 31.8133 50.5407 31.551 51.1884 31.5395C51.8361 31.5281 52.4629 31.7685 52.9368 32.2101L54.6568 33.9268C54.8908 34.1584 55.0767 34.434 55.2039 34.7377C55.3311 35.0413 55.397 35.3672 55.3979 35.6964C55.3989 36.0256 55.3348 36.3518 55.2093 36.6562C55.0838 36.9606 54.8995 37.2372 54.6668 37.4701L54.6568 37.4601ZM61.6001 44.4201C61.3682 44.6523 61.0929 44.8366 60.7897 44.9623C60.4866 45.088 60.1616 45.1526 59.8335 45.1526C59.5053 45.1526 59.1803 45.088 58.8772 44.9623C58.5741 44.8366 58.2987 44.6523 58.0668 44.4201L56.2768 42.6201C55.917 42.2728 55.6701 41.8252 55.5679 41.3357C55.4658 40.8461 55.5133 40.3372 55.7041 39.8749C55.895 39.4127 56.2204 39.0185 56.6382 38.7436C57.056 38.4687 57.5468 38.3258 58.0468 38.3335C58.3782 38.3372 58.7055 38.4065 59.0099 38.5376C59.3143 38.6686 59.5897 38.8587 59.8201 39.0968L61.6101 40.8935C61.8427 41.1251 62.0273 41.4004 62.1533 41.7036C62.2792 42.0068 62.344 42.3318 62.344 42.6601C62.344 42.9884 62.2792 43.3135 62.1533 43.6167C62.0273 43.9198 61.8427 44.1951 61.6101 44.4268L61.6001 44.4201Z" fill="#4386F4"/>
</svg>
