<svg width="80" height="80" viewBox="0 0 80 80" fill="none" xmlns="http://www.w3.org/2000/svg">
<path d="M66.25 12.5H13.75C11.4302 12.5026 9.20611 13.4254 7.56574 15.0657C5.92537 16.7061 5.00265 18.9302 5 21.25V58.75C5.00265 61.0698 5.92537 63.2939 7.56574 64.9343C9.20611 66.5746 11.4302 67.4974 13.75 67.5H66.25C68.5701 67.4982 70.7947 66.5758 72.4352 64.9352C74.0758 63.2947 74.9982 61.0701 75 58.75V21.25C74.9982 18.9299 74.0758 16.7053 72.4352 15.0648C70.7947 13.4242 68.5701 12.5018 66.25 12.5ZM64.0333 26.9733L41.5333 44.4733C41.0948 44.8139 40.5553 44.9988 40 44.9988C39.4447 44.9988 38.9052 44.8139 38.4667 44.4733L15.9667 26.9733C15.6972 26.7757 15.4701 26.5261 15.2987 26.2392C15.1274 25.9523 15.0153 25.634 14.9691 25.303C14.9228 24.9721 14.9434 24.6352 15.0297 24.3124C15.1159 23.9895 15.2659 23.6872 15.4709 23.4234C15.676 23.1595 15.9318 22.9394 16.2234 22.7761C16.5149 22.6128 16.8362 22.5096 17.1684 22.4727C17.5005 22.4357 17.8366 22.4656 18.1569 22.5608C18.4773 22.656 18.7753 22.8144 19.0333 23.0267L40 39.3333L60.9667 23.0267C61.4916 22.6417 62.1461 22.4767 62.7908 22.5667C63.4355 22.6568 64.0197 22.9947 64.4191 23.5088C64.8186 24.0228 65.0017 24.6724 64.9297 25.3194C64.8576 25.9664 64.5361 26.5597 64.0333 26.9733Z" fill="#4386F4"/>
</svg>
