<svg version="1.2" xmlns="http://www.w3.org/2000/svg" viewBox="0 0 1524 1524" width="1524" height="1524">
	<title>temuuu-svg</title>
	<style>
		.s0 { fill: #ffffff } 
		.s1 { fill: #fb7701 } 
	</style>
	<path id="Shape 1" class="s0" d="m124 262h1273v999h-1273z"/>
	<path id="Layer" fill-rule="evenodd" class="s1" d="m0 339c0-187.2 151.8-339 339-339h846c187.2 0 339 151.8 339 339v846c0 187.2-151.8 339-339 339h-846c-187.2 0-339-151.8-339-339zm804.3 452.6h-20.3c-18 0-32.7 14.6-32.6 32.6v224c0 18 14.6 32.7 32.6 32.7 18 0 32.8-14.5 32.8-32.7v-147l55 77.6c11.5 16.1 35.3 16.1 46.9 0l55.1-77.6v147c0 18 14.6 32.7 32.7 32.7 18 0 32.8-14.5 32.6-32.7v-224c0-18-14.6-32.7-32.6-32.6h-20.2c-7.8 0-15.2 3.7-19.7 10.1l-71.3 107.2-71.4-107.2c-4.5-6.4-11.7-10.1-19.6-10.1zm506.3 0c-18 0-32.8 14.6-32.8 32.6v136.8c0 43-24.2 65-64.1 64.9-39.9 0-64.2-22.8-64-66.9v-134.8c0-18-14.6-32.7-32.7-32.6-18.1 0-32.8 14.6-32.6 32.6v136.3c0 79.8 48.8 120.4 128.5 120.4 79.8 0 130.4-40.1 130.3-122.3v-134.4c0-18-14.6-32.7-32.6-32.6zm-918.1 0h-191c-18 0-32.7 14.6-32.7 32.6 0 18 14.6 32.8 32.7 32.8h62.8v190.9c0 18 14.6 32.7 32.6 32.7 18 0 32.8-14.5 32.8-32.7v-190.9h62.8c18 0 32.7-14.6 32.7-32.8 0-18-14.6-32.7-32.7-32.6zm282.6 0h-177c-18 0-32.7 14.6-32.7 32.6v223.7c0 18 14.6 32.7 32.7 32.7h177c18 0 32.7-14.5 32.6-32.7 0-18-14.6-32.7-32.6-32.7h-144.4v-46.5h125.6c18 0 32.8-14.6 32.8-32.6 0-18-14.6-32.7-32.8-32.7h-125.6v-46.4h144.4c18 0 32.7-14.6 32.6-32.8 0-18-14.6-32.7-32.6-32.6zm-319.3-341.4l-6.1 0.2c-25.4 1.6-42.8 12.6-52.6 27.5-11.5-17.1-32.9-29.2-65.2-27.4l-0.8 1c-3.7 6-17.7 32.6 4.9 61.7 4.7 4.9 16 18.7 11.4 36.4l-65.7 106.1c-5.3 8.7-3 19.8 5.2 25.6 17 11.9 51.1 28.3 110.2 28.3 58.9 0 93-16.4 109.9-28.3l2.3-1.9c6.4-6.1 7.7-15.9 3-23.7l-65.5-106.1 0.4 2-0.7-3c-3.6-15.9 5.3-28.6 10.2-34.3l1.2-1.1c22.8-29.1 8.7-55.6 4.9-61.7l-0.6-1zm212.6 49.7c-22.5-44.6-51.7-52.2-66.3-40.6-11.1 8.9-36.9 44.2-38.6 46.6-28.5 40.3-26.8 50.1 9.6 73 20.6 13 37.1-3.7 44.2-8.6-3.4 21.3-13.8 54.8-29.4 78.3-8.5-6.4-14.8-11.3-18.6-14.9-5-4.5-12.4-4.2-17.2 0.5-2.2 2.2-3.4 5.2-3.2 8.4 0.1 3.2 1.5 6.1 3.7 8.2 37.9 34.7 87.8 54.3 140.9 54.5 53.3 0 103.5-19.7 141.4-54.5 4.9-4.4 5.1-11.9 0.6-16.6-4.8-4.8-12.2-5-17.1-0.5-3 2.7-6 5.2-9.1 7.7l-16.7-37.2q-4-9.6-8.9-24.1c1.7-4 5.1-7.9 10-12.9 3.6-3.6 6.5-7.2 8.8-10.6 11-17.4 4.7-27.7 1.3-34.5-7.9-16.1-20.2-10.9-29.2-1.4-11 11.7-21.7 16.7-39 20.6-14.4 3.3-25.6 1.6-34.8-4.2-12.8-7.9-32.4-37.2-32.4-37.2zm412.7-45.4c-47.7 45.3-2 143.6-88.6 185.5-9.5 4.6-17.4-10.6-30.2-10.6-36.2 0.3-105.2 32.1-107.9 48.2-2.2 13.3 27.2 23.8 114.2 24 75.6 0 100-115.1 126.5-115.2 26.5 0 14.1 104.3 11.3 115.2h27.7c-2.4-10.9-4.2-43.6-4.1-89.9 0-46.3 8.4-56.6 15.1-91.5 5.8-30.4-39.2-56.8-64-65.7zm271.4 3.7h-77.5c-50.2 0-91.8 38.9-95.3 88.9l-5.6 80.2c-2.7 38.1 27.5 70.4 65.6 70.6h148c38.2 0 68.3-32.3 65.7-70.6l-5.6-80.2c-3.6-50-45.1-88.9-95.3-88.9zm-658.7 184.6c23.4 0 41.2 11.4 47.8 32.7-15.9 4.2-31.9 6.3-48.1 6.1-24.4 0-33-2.2-48.6-6.4 6.2-18.7 26.9-32.4 48.9-32.4zm584.8-118v2.2c0 19.3 15.7 35.3 35.1 35.3 19.3 0 35.3-15.8 35.3-35.3v-2.2c0-8.7 31.2-8.7 31.2 0v2.2c0 36.6-29.7 66.4-66.5 66.4-36.6 0-66.4-29.8-66.4-66.4v-2.2c0-8.7 31.1-8.7 31.3 0z"/>
</svg>