<svg width="80" height="80" viewBox="0 0 80 80" fill="none" xmlns="http://www.w3.org/2000/svg">
<g clipPath="url(#clip0_505_14826)">
<rect width="80" height="80" rx="10" fill="#45B058"/>
</g>
<path d="M24.3188 20.7773C23.3795 20.7773 22.4787 21.1505 21.8146 21.8146C21.1505 22.4787 20.7773 23.3795 20.7773 24.3188V40.8453C20.7773 41.7846 21.1505 42.6853 21.8146 43.3495C22.4787 44.0136 23.3795 44.3867 24.3188 44.3867H34.943V46.7477H23.1383C22.5121 46.7477 21.9116 46.9964 21.4688 47.4392C21.0261 47.8819 20.7773 48.4824 20.7773 49.1086V56.1914C20.7773 56.8176 21.0261 57.4181 21.4688 57.8608C21.9116 58.3036 22.5121 58.5523 23.1383 58.5523H56.1914C56.8176 58.5523 57.4181 58.3036 57.8608 57.8608C58.3036 57.4181 58.5523 56.8176 58.5523 56.1914V49.1086C58.5523 48.4824 58.3036 47.8819 57.8608 47.4392C57.4181 46.9964 56.8176 46.7477 56.1914 46.7477H44.3867V44.3867H55.0109C55.9502 44.3867 56.8509 44.0136 57.5151 43.3495C58.1792 42.6853 58.5523 41.7846 58.5523 40.8453V24.3188C58.5523 23.3795 58.1792 22.4787 57.5151 21.8146C56.8509 21.1505 55.9502 20.7773 55.0109 20.7773H24.3188ZM24.3188 23.1383H55.0109C55.324 23.1383 55.6243 23.2627 55.8457 23.484C56.067 23.7054 56.1914 24.0057 56.1914 24.3188V40.8453C56.1917 41.0004 56.1613 41.154 56.1021 41.2974C56.0428 41.4407 55.9559 41.5709 55.8462 41.6806C55.7365 41.7903 55.6063 41.8772 55.463 41.9364C55.3196 41.9957 55.166 42.026 55.0109 42.0258H24.3188C24.0057 42.0258 23.7054 41.9014 23.484 41.68C23.2627 41.4587 23.1383 41.1584 23.1383 40.8453V24.3188C23.1383 24.0057 23.2627 23.7054 23.484 23.484C23.7054 23.2627 24.0057 23.1383 24.3188 23.1383ZM49.1086 50.2891C49.1086 49.9762 49.2329 49.6762 49.4541 49.455C49.6753 49.2338 49.9753 49.1095 50.2881 49.1095C50.6009 49.1095 50.901 49.2338 51.1222 49.455C51.3434 49.6762 51.4676 49.9762 51.4676 50.2891C51.4676 50.6019 51.3434 50.9019 51.1222 51.1231C50.901 51.3443 50.6009 51.4686 50.2881 51.4686C49.9753 51.4686 49.6753 51.3443 49.4541 51.1231C49.2329 50.9019 49.1086 50.6019 49.1086 50.2891ZM53.8305 50.2891C53.8305 50.1342 53.861 49.9808 53.9203 49.8377C53.9795 49.6946 54.0664 49.5645 54.1759 49.455C54.2855 49.3455 54.4155 49.2586 54.5586 49.1993C54.7017 49.14 54.8551 49.1095 55.01 49.1095C55.1649 49.1095 55.3183 49.14 55.4614 49.1993C55.6045 49.2586 55.7345 49.3455 55.844 49.455C55.9536 49.5645 56.0405 49.6946 56.0997 49.8377C56.159 49.9808 56.1895 50.1342 56.1895 50.2891C56.1895 50.6019 56.0652 50.9019 55.844 51.1231C55.6228 51.3443 55.3228 51.4686 55.01 51.4686C54.6972 51.4686 54.3971 51.3443 54.1759 51.1231C53.9547 50.9019 53.8305 50.6019 53.8305 50.2891ZM24.3188 49.1086H36.1234C36.4365 49.1086 36.7368 49.233 36.9582 49.4543C37.1795 49.6757 37.3039 49.976 37.3039 50.2891C37.3039 50.6021 37.1795 50.9024 36.9582 51.1238C36.7368 51.3452 36.4365 51.4695 36.1234 51.4695H24.3188C24.0057 51.4695 23.7054 51.3452 23.484 51.1238C23.2627 50.9024 23.1383 50.6021 23.1383 50.2891C23.1383 49.976 23.2627 49.6757 23.484 49.4543C23.7054 49.233 24.0057 49.1086 24.3188 49.1086ZM23.1383 54.4216C23.1383 54.2649 23.2006 54.1145 23.3114 54.0036C23.4223 53.8928 23.5727 53.8305 23.7295 53.8305H36.7127C36.793 53.8259 36.8734 53.8378 36.949 53.8654C37.0246 53.893 37.0937 53.9358 37.1522 53.991C37.2106 54.0463 37.2572 54.1129 37.2891 54.1868C37.3209 54.2607 37.3373 54.3403 37.3373 54.4207C37.3373 54.5012 37.3209 54.5808 37.2891 54.6546C37.2572 54.7285 37.2106 54.7951 37.1522 54.8504C37.0937 54.9056 37.0246 54.9484 36.949 54.976C36.8734 55.0036 36.793 55.0155 36.7127 55.0109H23.7313C23.6536 55.0112 23.5767 54.9961 23.5048 54.9664C23.433 54.9368 23.3677 54.8933 23.3128 54.8383C23.2578 54.7834 23.2143 54.7181 23.1847 54.6463C23.155 54.5745 23.1399 54.4975 23.1402 54.4198L23.1383 54.4216Z" fill="#FEFEFE"/>
<defs>
<clipPath id="clip0_505_14826">
<rect width="80" height="80" fill="white"/>
</clipPath>
</defs>
</svg>
