<svg width="80" height="80" viewBox="0 0 80 80" fill="none" xmlns="http://www.w3.org/2000/svg">
<g clipPath="url(#clip0_261_12109)">
<rect width="80" height="80" rx="10" fill="#00A1F6"/>
<g clipPath="url(#clip1_261_12109)">
<path d="M62.6668 25.5308C62.3636 26.1709 61.7992 26.9796 60.9738 27.9566C60.1483 28.9337 59.1292 29.7928 57.9162 30.5341C57.9499 30.8037 57.9752 31.0563 57.992 31.2922C58.1228 34.9234 57.253 38.6908 56.0462 41.8295C53.7071 47.6652 50.1229 52.3618 45.0035 55.5508C39.665 58.613 33.4476 59.2643 27.7192 58.7095C23.9163 58.2727 20.1681 57.0309 17.3335 54.6916C22.5179 55.3114 27.3561 53.5477 31.1811 50.699C26.9322 50.8066 23.845 47.7329 22.3874 44.1795C23.0445 44.3518 23.7318 44.331 24.3584 44.2807C25.1297 44.2082 25.8618 44.1359 26.5821 43.9775C23.8728 43.1033 21.5022 41.4964 20.2648 39.0751C19.539 37.541 19.2112 36.08 19.2035 34.4256C20.473 35.094 22.0001 35.7454 23.3982 35.689C21.2868 33.9003 19.594 31.6144 19.2793 28.9926C19.0806 26.8066 19.6277 24.8111 20.4165 22.9532C23.575 26.4244 27.1188 29.2811 31.2065 31.0394C34.002 32.1842 36.7895 32.7964 39.6718 32.8083C39.3391 30.2339 39.5978 27.7442 40.8089 25.6317C42.2343 23.3606 44.3139 22.0429 46.6462 21.3865C49.9834 20.5307 53.2383 21.7395 55.2883 24.065C57.4991 23.8262 59.6169 22.8454 61.3025 21.8413C60.5863 24.0101 59.1917 26.1666 57.1583 27.1984C59.0943 26.84 60.9417 26.2669 62.6668 25.5308Z" fill="white"/>
</g>
</g>
<defs>
<clipPath id="clip0_261_12109">
<rect width="80" height="80" fill="white"/>
</clipPath>
<clipPath id="clip1_261_12109">
<rect width="45.3333" height="45.3333" fill="white" transform="translate(17.3335 17.333)"/>
</clipPath>
</defs>
</svg>
