<svg version="1.2" baseProfile="tiny-ps" xmlns="http://www.w3.org/2000/svg" viewBox="0 0 1525 1708" width="50" height="50">
	<title>Walmart_logo-svg</title>
	<style>
		tspan { white-space:pre }
		.shp0 { fill: #fcb61a } 
	</style>
	<g id="Layer">
		<path id="Layer" class="shp0" d="M762.52 574.85C802.29 574.85 835.78 554.07 840.14 527.36L879.57 80.48C879.57 36.22 827.5 0 762.52 0C697.19 0 645.47 36.22 645.47 80.48L685.24 527.36C689.43 554.07 722.75 574.85 762.52 574.85Z" />
		<path id="Layer" class="shp0" d="M520.64 714.68C540.35 679.77 539.21 641.02 517.93 623.73L149.87 366.16C111.59 343.82 54.28 370.44 21.49 426.82C-11.22 483.12 -4.59 546.31 32.91 568.22L440.39 757.28C466.47 767.05 500.57 748.9 520.64 714.33" />
		<path id="Layer" class="shp0" d="M1004.35 714.32C1025.19 748.88 1059.29 767.04 1084.68 757.78L1492.16 568.2C1530.01 545.86 1535.68 483.28 1503.67 426.98C1470.97 370.6 1413.31 344.15 1375.11 366.06L1006.97 623.37C986.56 640.91 985.08 679.84 1004.78 714.67" />
		<path id="Layer" class="shp0" d="M762.52 1133.07C802.29 1133.07 835.78 1153.84 840.14 1180.55L879.57 1627.44C879.57 1671.69 827.5 1707.56 762.52 1707.56C697.19 1707.56 645.47 1671.69 645.47 1627.44L685.24 1180.55C689.43 1153.84 722.75 1133.07 762.52 1133.07Z" />
		<path id="Layer" class="shp0" d="M1004.35 993.62C1025.19 958.97 1059.29 940.47 1084.68 950.51L1492.16 1139.74C1530.01 1161.64 1535.68 1224.75 1503.67 1281.13C1470.97 1337.08 1413.31 1363.7 1375.11 1341.8L1006.97 1084.14C986.56 1066.77 985.08 1028.01 1004.78 993.62" />
		<path id="Layer" class="shp0" d="M520.64 993.24C540.35 1028.06 539.21 1066.73 517.93 1084.19L149.87 1341.41C111.59 1363.76 54.28 1337.05 21.49 1281.1C-11.22 1224.8 -4.59 1161.61 32.91 1139.7L440.39 950.47C466.47 940.52 500.57 958.85 520.64 993.24Z" />
	</g>
	<g id="Layer">
	</g>
	<g id="Layer">
	</g>
	<g id="Layer">
	</g>
	<g id="Layer">
	</g>
	<g id="Layer">
	</g>
	<g id="Layer">
	</g>
</svg>