<svg width="140" height="34" viewBox="0 0 140 34" fill="none" xmlns="http://www.w3.org/2000/svg">
<path d="M50.1948 17.2362L47.6124 19.777V26.3469H46.0483V8.0166H47.6124V17.8896L57.0329 8.0166H58.9971L51.286 16.1836L59.579 26.3469H57.6876L50.1948 17.2362Z" fill="white"/>
<path d="M63.18 12.7346L63.2164 15.0576C63.7256 14.2228 64.3803 13.5694 65.1442 13.1338C65.908 12.6983 66.7446 12.4805 67.6903 12.4805C69.1452 12.4805 70.2363 12.8797 70.9638 13.7146C71.6913 14.5494 72.055 15.7836 72.055 17.4169V26.3462H70.5637V17.4169C70.5637 16.1828 70.3091 15.2754 69.7999 14.6946C69.2907 14.1139 68.4905 13.7872 67.3629 13.7872C66.4172 13.7872 65.617 14.0776 64.8895 14.6583C64.1621 15.2391 63.6529 16.0376 63.2891 17.0177V26.3462H61.7979V12.7346H63.18Z" fill="white"/>
<path d="M75.074 19.3415C75.074 18.0348 75.3286 16.837 75.8378 15.8207C76.347 14.8043 77.0745 13.9695 77.9838 13.3887C78.8931 12.808 79.9843 12.5176 81.1482 12.5176C82.9669 12.5176 84.4218 13.1709 85.5493 14.4414C86.6769 15.7118 87.2225 17.3815 87.2225 19.4867V19.8134C87.2225 21.1201 86.9679 22.3179 86.4587 23.3706C85.9494 24.4232 85.222 25.2217 84.3127 25.8025C83.4033 26.3833 82.3485 26.6737 81.1482 26.6737C79.3296 26.6737 77.8747 26.0203 76.7471 24.7499C75.6196 23.4795 75.0376 21.8098 75.0376 19.7045V19.3415H75.074ZM76.6016 19.7771C76.6016 21.4105 77.0381 22.7535 77.8747 23.7698C78.7113 24.8225 79.8388 25.3306 81.1846 25.3306C82.5304 25.3306 83.658 24.8225 84.4945 23.7698C85.3311 22.7172 85.7676 21.3379 85.7676 19.6319V19.3415C85.7676 18.2889 85.5857 17.3452 85.1856 16.474C84.7855 15.6029 84.2399 14.9495 83.5488 14.4777C82.8578 14.0058 82.0576 13.7517 81.1482 13.7517C79.8024 13.7517 78.7113 14.2962 77.8383 15.3488C76.9654 16.4014 76.5653 17.7807 76.5653 19.4867V19.7771H76.6016Z" fill="white"/>
<path d="M93.6601 23.2254L93.8784 24.3869L94.1694 23.1528L97.4429 12.7354H98.716L101.953 23.0802L102.317 24.5321L102.608 23.2254L105.409 12.7716H106.973L103.008 26.3833H101.735L98.2431 15.5666L98.0613 14.8406L97.8794 15.6029L94.424 26.3833H93.1509L89.2227 12.7354H90.7867L93.6601 23.2254Z" fill="white"/>
<path d="M111.556 26.3466H110.028V7H111.556V26.3466Z" fill="white"/>
<path d="M120.94 26.6004C119.776 26.6004 118.721 26.31 117.776 25.7293C116.83 25.1485 116.102 24.35 115.593 23.3336C115.084 22.3173 114.793 21.1558 114.793 19.8854V19.3409C114.793 18.0342 115.048 16.8363 115.557 15.82C116.066 14.8037 116.757 13.9325 117.666 13.3518C118.576 12.771 119.558 12.4443 120.613 12.4443C122.286 12.4443 123.595 13.0251 124.541 14.1503C125.487 15.2756 125.996 16.8363 125.996 18.7601V19.6313H116.248V19.9216C116.248 21.4824 116.684 22.7529 117.594 23.7692C118.467 24.7855 119.594 25.2937 120.94 25.2937C121.74 25.2937 122.468 25.1485 123.086 24.8581C123.704 24.5677 124.25 24.0959 124.759 23.4425L125.705 24.1685C124.686 25.8019 123.05 26.6004 120.94 26.6004ZM120.685 13.7511C119.558 13.7511 118.576 14.1503 117.812 14.9852C117.048 15.82 116.575 16.9452 116.393 18.3246H124.577V18.1431C124.541 16.8364 124.177 15.7837 123.45 14.9489C122.722 14.114 121.813 13.7511 120.685 13.7511Z" fill="white"/>
<path d="M134.289 26.6004C133.125 26.6004 132.07 26.31 131.124 25.7293C130.178 25.1485 129.451 24.35 128.942 23.3336C128.433 22.3173 128.142 21.1558 128.142 19.8854V19.3409C128.142 18.0342 128.396 16.8363 128.905 15.82C129.415 14.8037 130.106 13.9325 131.015 13.3518C131.924 12.771 132.906 12.4443 133.961 12.4443C135.634 12.4443 136.944 13.0251 137.89 14.1503C138.835 15.2756 139.344 16.8363 139.344 18.7601V19.6313H129.669V19.9216C129.669 21.4824 130.106 22.7529 131.015 23.7692C131.888 24.7855 133.016 25.2937 134.361 25.2937C135.162 25.2937 135.889 25.1485 136.507 24.8581C137.126 24.5677 137.671 24.0959 138.181 23.4425L139.126 24.1685C138.035 25.8019 136.435 26.6004 134.289 26.6004ZM134.034 13.7511C132.906 13.7511 131.924 14.1503 131.161 14.9852C130.397 15.82 129.924 16.9452 129.742 18.3246H137.926V18.1431C137.89 16.8364 137.526 15.7837 136.798 14.9489C136.071 14.114 135.162 13.7511 134.034 13.7511Z" fill="white"/>
<path d="M21.1693 27.0182C18.696 27.0182 16.6591 24.9856 16.4409 22.5899C16.4409 22.4447 16.4045 22.2995 16.4045 22.1543V7.09082C16.1863 7.16342 4.11048 10.7569 4.11048 10.7569C2.51007 11.3013 0.909668 12.7896 0.909668 14.4592L0.946041 29.4139C0.909668 31.5554 3.23753 33.5881 5.67451 33.5881C6.14735 33.5881 6.6202 33.5155 7.09305 33.3703L18.5869 29.9583C20.2964 29.5228 21.1693 30.1398 21.7877 30.648C21.824 30.6843 21.8968 30.6843 21.9332 30.6843C22.0787 30.6843 22.1878 30.5754 22.1878 30.4302V26.873C21.8604 27.0182 21.5331 27.0182 21.1693 27.0182Z" fill="#4386F4"/>
<path d="M37.646 4.55021C37.6824 2.40864 35.3545 0.375977 32.9176 0.375977C32.4447 0.375977 31.9719 0.448572 31.499 0.593762L20.0052 4.00574C18.2957 4.44131 17.4227 3.82425 16.8044 3.31609C16.768 3.27979 16.6953 3.27979 16.6589 3.27979C16.5134 3.27979 16.4043 3.38868 16.4043 3.53387V7.09104C16.7317 6.98215 17.0954 6.98215 17.4591 6.98215C19.9325 6.98215 21.9693 9.01482 22.1876 11.4105C22.1876 11.5557 22.2239 11.7008 22.2239 11.846V26.9096C22.4422 26.837 34.518 23.2435 34.518 23.2435C36.1184 22.6627 37.7188 21.2108 37.7188 19.5411L37.646 4.55021Z" fill="#FFAB3F"/>
<path d="M22.1878 11.4109C21.9696 8.97896 19.9327 6.94629 17.423 6.94629C17.0592 6.94629 16.6955 6.94629 16.3682 7.05518V22.1187C16.3682 22.2639 16.3682 22.4091 16.4045 22.5543C16.6228 24.9862 18.6597 26.9826 21.133 26.9826C21.4967 26.9826 21.8605 26.9826 22.1878 26.8737V11.8102C22.2242 11.7013 22.2242 11.5561 22.1878 11.4109Z" fill="#4386F4"/>
<path opacity="0.9" d="M22.1878 11.4109C21.9696 8.97896 19.9327 6.94629 17.423 6.94629C17.0592 6.94629 16.6955 6.94629 16.3682 7.05518V22.1187C16.3682 22.2639 16.3682 22.4091 16.4045 22.5543C16.6228 24.9862 18.6597 26.9826 21.133 26.9826C21.4967 26.9826 21.8605 26.9826 22.1878 26.8737V11.8102C22.2242 11.7013 22.2242 11.5561 22.1878 11.4109Z" fill="#FFAB3F"/>
</svg>
