<svg xmlns="http://www.w3.org/2000/svg" width="48" height="48" viewBox="0 0 48 48" fill="none">
<path d="M26.3397 35.971C23.3683 35.971 20.9212 33.5318 20.659 30.657C20.659 30.4828 20.6153 30.3086 20.6153 30.1343V12.0581C20.3531 12.1452 5.84542 16.4574 5.84542 16.4574C3.92271 17.1107 2 18.8966 2 20.9002L2.0437 38.8458C2 41.4156 4.79667 43.8548 7.72443 43.8548C8.2925 43.8548 8.86057 43.7677 9.42864 43.5935L23.2372 39.4991C25.291 38.9764 26.3397 39.7169 27.0826 40.3267C27.1263 40.3703 27.2137 40.3703 27.2574 40.3703C27.4322 40.3703 27.5633 40.2396 27.5633 40.0654V35.7968C27.17 35.971 26.7767 35.971 26.3397 35.971Z" fill="#4386F4"/>
<path d="M46.1348 9.00907C46.1785 6.4392 43.3818 4 40.4541 4C39.886 4 39.3179 4.08711 38.7499 4.26134L24.9413 8.35572C22.8875 8.8784 21.8388 8.13793 21.0959 7.52813C21.0522 7.48457 20.9648 7.48457 20.9211 7.48457C20.7463 7.48457 20.6152 7.61525 20.6152 7.78947V12.0581C21.0085 11.9274 21.4455 11.9274 21.8825 11.9274C24.8539 11.9274 27.301 14.3666 27.5632 17.2414C27.5632 17.4156 27.6069 17.5898 27.6069 17.7641V35.8403C27.8691 35.7532 42.3768 31.441 42.3768 31.441C44.2995 30.7441 46.2222 29.0018 46.2222 26.9982L46.1348 9.00907Z" fill="#FFAB3F"/>
<path d="M27.5634 17.2413C27.3013 14.323 24.8542 11.8838 21.839 11.8838C21.402 11.8838 20.9651 11.8838 20.5718 12.0145V30.0907C20.5718 30.2649 20.5718 30.4391 20.6155 30.6134C20.8777 33.5317 23.3247 35.9273 26.2962 35.9273C26.7332 35.9273 27.1702 35.9273 27.5634 35.7967V17.7204C27.6071 17.5898 27.6071 17.4155 27.5634 17.2413Z" fill="#4386F4"/>
<path opacity="0.9" d="M27.5634 17.2413C27.3013 14.323 24.8542 11.8838 21.839 11.8838C21.402 11.8838 20.9651 11.8838 20.5718 12.0145V30.0907C20.5718 30.2649 20.5718 30.4391 20.6155 30.6134C20.8777 33.5317 23.3247 35.9273 26.2962 35.9273C26.7332 35.9273 27.1702 35.9273 27.5634 35.7967V17.7204C27.6071 17.5898 27.6071 17.4155 27.5634 17.2413Z" fill="#FFAB3F"/>
</svg>