<svg width="435" height="435" viewBox="0 0 435 435" fill="none" xmlns="http://www.w3.org/2000/svg">
<path d="M374.731 156.731H221.394C217.863 156.731 215 159.594 215 163.125C215 166.656 217.863 169.519 221.394 169.519H374.731C378.262 169.519 381.125 166.656 381.125 163.125C381.125 159.594 378.262 156.731 374.731 156.731Z" fill="#4386f4" stroke="#4386f4" stroke-width="3"/>
<path d="M374.731 75.1689H221.394C217.863 75.1689 215 78.0315 215 81.5627C215 85.0939 217.863 87.9564 221.394 87.9564H374.731C378.262 87.9564 381.125 85.0939 381.125 81.5627C381.125 78.0315 378.262 75.1689 374.731 75.1689Z" fill="#4386f4" stroke="#4386f4" stroke-width="3"/>
<path d="M120.694 75.196H81.5627C63.0488 75.196 47.9814 90.2633 47.9814 108.777V169.949V171.449H49.4814H59.2689H60.7693L60.7689 169.949L60.7554 108.777C60.7554 108.777 60.7554 108.777 60.7554 108.777C60.7555 97.3167 70.0889 87.9835 81.5491 87.9835H120.694L93.1578 115.519L92.0961 116.581L93.1589 117.642L100.078 124.547L101.139 125.606L102.198 124.546L140.647 86.111C140.649 86.1096 140.65 86.1081 140.652 86.1067C141.87 84.9039 142.522 83.2656 142.522 81.5897C142.522 79.9022 141.848 78.2695 140.655 77.0762L102.198 38.6195L101.138 37.5589L100.077 38.6195L93.1578 45.5387L92.0972 46.5994L93.1578 47.6601L120.694 75.196Z" fill="#4386f4" stroke="#4386f4" stroke-width="3"/>
<path d="M374.724 238.294H221.401C217.866 238.294 215 241.16 215 244.694C215 248.229 217.866 251.095 221.401 251.095H374.724C378.259 251.095 381.125 248.229 381.125 244.694C381.125 241.16 378.259 238.294 374.724 238.294Z" fill="#4386f4" stroke="#4386f4" stroke-width="3"/>
<path d="M420.406 6.2002H175.719C171.633 6.2002 168.325 9.50808 168.325 13.5939V196.513H39.7814C20.7153 196.513 5.2002 212.028 5.2002 231.094V339.844C5.2002 358.924 20.716 374.425 39.7814 374.425H89.5801L113.836 422.925C114.948 425.147 117.651 426.048 119.873 424.937L125.05 422.348C127.273 421.237 128.174 418.534 127.063 416.311L100.77 363.725C99.5163 361.218 96.9505 359.638 94.1564 359.638H39.7814C28.8724 359.638 19.9877 350.765 19.9877 339.844V231.094C19.9877 220.186 28.8734 211.3 39.7814 211.3H168.325V271.258C163.193 273.916 159.625 279.229 159.625 285.469C159.625 291.708 163.193 297.022 168.325 299.68V312.656C168.325 316.742 171.633 320.05 175.719 320.05H222.7V339.844C222.7 350.752 213.814 359.638 202.906 359.638H123.344C120.859 359.638 118.844 361.652 118.844 364.138V369.939C118.844 372.424 120.859 374.439 123.344 374.439H202.906C221.973 374.439 237.488 358.924 237.488 339.858V320.064H420.406C424.492 320.064 427.8 316.756 427.8 312.67V13.5939C427.8 9.50807 424.492 6.2002 420.406 6.2002ZM413.013 20.9877V305.263H183.113V20.9877H413.013Z" fill="#4386f4" stroke="#4386f4" stroke-width="5"/>
<path d="M67.9688 299.062C75.4764 299.062 81.5625 292.976 81.5625 285.469C81.5625 277.961 75.4764 271.875 67.9688 271.875C60.4611 271.875 54.375 277.961 54.375 285.469C54.375 292.976 60.4611 299.062 67.9688 299.062Z" fill="#4386f4"/>
<path d="M122.344 299.062C129.851 299.062 135.938 292.976 135.938 285.469C135.938 277.961 129.851 271.875 122.344 271.875C114.836 271.875 108.75 277.961 108.75 285.469C108.75 292.976 114.836 299.062 122.344 299.062Z" fill="#4386f4"/>
</svg>
