<svg width="24" height="24" viewBox="0 0 24 24" fill="none" xmlns="http://www.w3.org/2000/svg">
<g id="Frame">
<path id="Vector" d="M18.28 8.37377C18.1104 8.17485 17.8699 8.04999 17.6096 8.02579C17.3493 8.00159 17.0899 8.07996 16.8865 8.24421C16.6832 8.40846 16.552 8.64561 16.5209 8.90515C16.4898 9.1647 16.5612 9.42613 16.72 9.63377C17.2252 10.3207 17.4977 11.1511 17.4977 12.0038C17.4977 12.8565 17.2252 13.6869 16.72 14.3738C16.5748 14.5502 16.4944 14.7711 16.4922 14.9996C16.49 15.2281 16.5662 15.4505 16.708 15.6297C16.8498 15.8089 17.0487 15.9341 17.2716 15.9845C17.4945 16.035 17.7279 16.0075 17.933 15.9068C18.0679 15.8429 18.1868 15.7496 18.281 15.6338C19.0742 14.5899 19.5037 13.3149 19.5037 12.0038C19.5037 10.6927 19.0732 9.41769 18.28 8.37377Z" fill="#8E55EA"/>
<path id="Vector_2" d="M19.64 5.23125C19.4358 5.06151 19.1725 4.97985 18.9081 5.00423C18.6437 5.02861 18.3997 5.15704 18.23 5.36125C18.0603 5.56547 17.9786 5.82875 18.003 6.09318C18.0274 6.3576 18.1558 6.60151 18.36 6.77125C19.162 7.39112 19.8153 8.18246 20.2721 9.08736C20.7289 9.99227 20.9776 10.9878 21 12.0013C20.9776 13.0147 20.7289 14.0102 20.2721 14.9151C19.8153 15.82 19.162 16.6114 18.36 17.2313C18.2015 17.3626 18.0873 17.5398 18.0332 17.7384C17.9791 17.9371 17.9876 18.1476 18.0576 18.3413C18.1277 18.5349 18.2557 18.7022 18.4244 18.8204C18.5931 18.9385 18.7941 19.0017 19 19.0013C19.2337 19.0017 19.4601 18.9203 19.64 18.7713C20.6704 17.9657 21.5072 16.9393 22.0887 15.7677C22.6701 14.5961 22.9816 13.3091 23 12.0013C22.9816 10.6934 22.6701 9.40637 22.0887 8.23476C21.5072 7.06316 20.6704 6.03683 19.64 5.23125Z" fill="#8E55EA"/>
<path id="Vector_3" d="M15 3.11835C14.848 3.03058 14.6756 2.98438 14.5 2.98438C14.3245 2.98438 14.152 3.03058 14 3.11835L7.52002 7.56835H2.52002C2.2548 7.56835 2.00045 7.67371 1.81291 7.86124C1.62538 8.04878 1.52002 8.30313 1.52002 8.56835V15.4284C1.52002 15.6936 1.62538 15.9479 1.81291 16.1355C2.00045 16.323 2.2548 16.4283 2.52002 16.4283H7.52002L13.93 20.8283C14.1 20.9383 14.297 20.9983 14.5 20.9983C14.7652 20.9983 15.0196 20.893 15.2071 20.7055C15.3947 20.5179 15.5 20.2636 15.5 19.9983V3.99835C15.5025 3.82045 15.4575 3.64511 15.3696 3.49042C15.2817 3.33573 15.1541 3.20729 15 3.11835ZM13.53 18.1183L8.40002 14.5983C8.23166 14.4852 8.03286 14.4259 7.83002 14.4284H3.50002V9.56835H7.83002C8.03286 9.57081 8.23166 9.51152 8.40002 9.39835L13.5 5.89835L13.53 18.1183Z" fill="#8E55EA"/>
</g>
</svg>
